<?xml version="1.0" encoding="UTF-8" standalone="no"?>
<!DOCTYPE svg PUBLIC "-//W3C//DTD SVG 1.1//EN" "http://www.w3.org/Graphics/SVG/1.1/DTD/svg11.dtd">
<svg xmlns="http://www.w3.org/2000/svg" version="1.1" viewBox="0.00 0.00 1024.00 1024.00">
<path fill="#000000" d="
  M 598.99 499.10
  L 602.12 499.20
  L 606.91 499.73
  L 611.67 500.71
  L 612.02 500.68
  L 612.28 500.44
  L 616.32 492.79
  L 619.82 485.00
  L 622.74 477.19
  L 625.11 469.27
  L 626.88 461.42
  L 628.08 453.47
  L 628.69 445.57
  L 628.72 437.61
  L 628.09 429.02
  L 626.76 420.39
  L 624.82 412.01
  L 622.35 403.90
  L 619.34 396.07
  L 615.80 388.51
  L 615.80 388.51
  L 615.80 388.51
  L 615.80 388.51
  L 612.03 381.74
  L 607.79 375.21
  L 603.09 368.92
  L 597.93 362.86
  L 591.68 356.53
  L 591.68 356.53
  L 591.68 356.53
  L 587.87 353.18
  L 583.89 350.00
  L 579.75 347.01
  L 575.43 344.20
  L 572.37 341.97
  L 570.07 339.54
  L 569.31 338.37
  L 568.75 337.14
  L 568.43 335.94
  L 568.34 334.70
  L 568.35 334.51
  L 568.63 332.22
  L 569.20 330.16
  L 570.04 328.35
  L 571.16 326.78
  L 572.54 325.47
  L 574.19 324.39
  L 576.11 323.55
  L 578.30 322.94
  L 578.96 322.85
  L 578.96 322.85
  L 580.82 323.05
  L 582.72 323.92
  L 588.42 327.65
  L 593.87 331.56
  L 599.07 335.65
  L 604.03 339.94
  L 608.75 344.40
  L 613.22 349.05
  L 617.44 353.89
  L 621.42 358.91
  L 621.42 358.91
  L 621.42 358.91
  L 624.61 363.32
  L 627.61 367.86
  L 630.44 372.53
  L 633.10 377.33
  L 635.58 382.27
  L 637.88 387.34
  L 640.00 392.54
  L 641.95 397.88
  L 642.57 399.72
  L 645.04 408.36
  L 646.90 417.20
  L 648.12 425.84
  L 648.82 434.43
  L 648.99 442.99
  L 648.63 451.51
  L 648.10 457.18
  L 647.34 462.83
  L 646.34 468.46
  L 645.11 474.07
  L 642.38 483.78
  L 638.95 493.21
  L 634.79 502.41
  L 629.96 511.25
  L 624.47 519.73
  L 618.37 527.77
  L 611.68 535.35
  L 604.43 542.43
  L 598.23 547.72
  L 591.81 552.60
  L 585.15 557.05
  L 578.27 561.07
  L 578.27 561.07
  L 570.77 564.85
  L 563.02 568.17
  L 555.01 571.01
  L 546.75 573.39
  L 537.24 575.49
  L 527.75 576.95
  L 518.26 577.74
  L 508.79 577.89
  L 508.79 577.89
  L 500.52 577.48
  L 492.27 576.58
  L 484.02 575.17
  L 475.78 573.27
  L 466.81 570.58
  L 466.81 570.58
  L 466.81 570.58
  L 460.95 568.44
  L 455.19 566.03
  L 449.52 563.33
  L 443.95 560.36
  L 438.47 557.10
  L 433.09 553.57
  L 427.80 549.76
  L 422.60 545.67
  L 418.78 542.39
  L 415.14 538.97
  L 411.69 535.42
  L 408.42 531.74
  L 403.53 525.69
  L 398.99 519.51
  L 394.88 513.27
  L 391.12 506.88
  L 387.79 500.47
  L 384.82 493.90
  L 382.25 487.28
  L 380.05 480.50
  L 378.72 475.62
  L 377.58 470.66
  L 376.63 465.62
  L 375.87 460.49
  L 375.27 455.01
  L 374.88 449.51
  L 374.88 449.51
  L 374.88 449.51
  L 374.69 441.67
  L 374.91 433.81
  L 375.56 425.92
  L 376.63 418.01
  L 377.49 413.42
  L 378.61 408.67
  L 381.61 398.67
  L 383.61 393.16
  L 385.79 387.80
  L 388.16 382.58
  L 390.71 377.50
  L 393.46 372.56
  L 396.38 367.76
  L 399.50 363.11
  L 402.80 358.59
  L 402.80 358.59
  L 402.80 358.59
  L 406.83 353.57
  L 411.10 348.74
  L 415.63 344.09
  L 420.40 339.64
  L 425.42 335.37
  L 430.68 331.29
  L 436.19 327.40
  L 441.95 323.70
  L 443.41 323.03
  L 443.41 323.03
  L 444.78 322.77
  L 446.24 322.80
  L 447.80 323.12
  L 449.44 323.74
  L 452.04 325.33
  L 453.06 326.30
  L 453.91 327.39
  L 453.91 327.39
  L 454.57 328.63
  L 455.05 329.98
  L 455.34 331.46
  L 455.44 333.06
  L 455.34 334.79
  L 455.04 336.38
  L 454.53 337.84
  L 453.82 339.17
  L 453.82 339.17
  L 453.44 339.72
  L 451.55 341.52
  L 448.19 343.82
  L 444.49 346.24
  L 440.90 348.84
  L 437.35 351.66
  L 433.92 354.64
  L 427.38 361.10
  L 421.26 368.25
  L 415.64 375.98
  L 410.55 384.28
  L 406.10 392.96
  L 402.37 401.87
  L 400.47 407.38
  L 398.42 414.73
  L 396.88 422.24
  L 395.85 429.91
  L 395.32 437.74
  L 395.27 444.01
  L 395.55 450.21
  L 396.17 456.35
  L 397.12 462.43
  L 397.12 462.43
  L 399.16 471.35
  L 401.93 480.13
  L 405.45 488.77
  L 409.70 497.27
  L 411.65 500.10
  L 411.99 500.38
  L 412.45 500.43
  L 424.69 498.77
  L 425.66 498.25
  L 426.04 497.22
  L 426.02 437.65
  L 426.11 432.08
  L 426.37 429.41
  L 427.15 427.52
  L 428.23 426.13
  L 429.64 425.14
  L 431.50 424.46
  L 433.87 424.10
  L 437.10 424.00
  L 459.43 424.04
  L 460.12 423.95
  L 460.61 423.65
  L 460.90 423.17
  L 461.00 422.48
  L 461.02 390.98
  L 461.30 386.54
  L 461.64 384.92
  L 462.12 383.72
  L 463.50 381.95
  L 464.68 381.10
  L 466.07 380.50
  L 467.69 380.13
  L 469.52 380.00
  L 498.13 380.04
  L 498.78 379.83
  L 499.00 379.18
  L 499.00 360.49
  L 498.82 359.92
  L 498.28 359.70
  L 486.88 359.06
  L 475.56 359.04
  L 475.17 358.92
  L 475.04 358.53
  L 475.04 333.28
  L 475.41 332.40
  L 476.29 332.03
  L 498.36 332.03
  L 498.81 331.84
  L 499.00 331.38
  L 499.00 308.77
  L 499.30 308.01
  L 500.05 307.67
  L 512.35 307.35
  L 523.93 307.74
  L 524.69 308.10
  L 525.00 308.88
  L 525.00 331.07
  L 525.23 331.78
  L 525.94 332.01
  L 547.24 332.01
  L 547.91 332.14
  L 548.48 332.52
  L 548.86 333.09
  L 548.99 333.76
  L 548.99 358.45
  L 548.87 358.81
  L 548.50 358.93
  L 531.26 359.01
  L 528.10 359.23
  L 525.52 360.01
  L 525.14 360.32
  L 525.02 360.79
  L 525.02 379.25
  L 525.26 379.83
  L 525.83 380.07
  L 551.03 379.90
  L 555.56 380.12
  L 557.47 380.50
  L 559.15 381.07
  L 560.56 382.04
  L 561.71 383.65
  L 562.51 385.86
  L 562.83 388.34
  L 563.02 403.44
  L 562.96 422.57
  L 563.05 423.22
  L 563.33 423.69
  L 563.79 423.96
  L 564.44 424.05
  L 588.24 423.95
  L 589.81 424.06
  L 591.35 424.39
  L 592.84 424.93
  L 594.22 425.69
  L 595.42 426.60
  L 596.45 427.69
  L 597.21 428.85
  L 597.76 430.15
  L 597.96 430.95
  L 598.05 436.55
  L 598.04 498.15
  L 598.28 498.86
  L 598.99 499.10
  Z
  M 541.20 400.96
  L 483.09 400.96
  L 482.27 401.23
  L 482.00 402.05
  L 481.88 485.28
  L 481.59 497.02
  L 480.85 510.46
  L 481.04 511.45
  L 481.76 512.14
  L 487.66 515.62
  L 493.24 519.42
  L 498.49 523.52
  L 503.42 527.93
  L 507.37 532.12
  L 510.95 536.79
  L 511.44 537.08
  L 511.99 536.91
  L 512.05 536.84
  L 516.89 531.40
  L 522.02 526.36
  L 527.41 521.72
  L 533.08 517.47
  L 533.08 517.47
  L 533.08 517.47
  L 533.08 517.47
  L 537.20 514.74
  L 541.44 512.21
  L 541.92 511.74
  L 542.06 511.14
  L 542.14 482.97
  L 542.75 455.01
  L 543.02 433.52
  L 542.55 407.00
  L 542.33 404.13
  L 541.82 401.44
  L 541.59 401.09
  L 541.20 400.96
  Z
  M 563.02 500.95
  L 563.12 501.39
  L 563.57 501.84
  L 564.20 501.93
  L 577.20 499.61
  L 577.67 499.38
  L 577.97 498.94
  L 578.02 498.62
  L 577.99 445.92
  L 577.74 445.26
  L 577.12 444.93
  L 576.98 444.92
  L 563.98 444.99
  L 563.42 445.17
  L 563.05 445.65
  L 562.99 445.99
  L 563.02 500.95
  Z
  M 446.00 499.11
  L 446.10 499.55
  L 446.42 499.94
  L 446.88 500.12
  L 459.80 501.95
  L 460.61 501.71
  L 460.96 500.94
  L 461.01 446.05
  L 460.71 445.33
  L 459.99 445.03
  L 447.03 444.98
  L 446.79 445.01
  L 446.23 445.37
  L 446.01 446.00
  L 446.00 499.11
  Z
  M 524.36 556.36
  L 528.21 555.96
  L 536.22 554.69
  L 544.00 552.90
  L 551.56 550.59
  L 558.90 547.76
  L 558.90 547.76
  L 558.90 547.76
  L 564.43 545.22
  L 569.83 542.37
  L 575.09 539.20
  L 580.22 535.73
  L 587.50 530.15
  L 594.67 523.91
  L 597.01 521.30
  L 597.16 520.51
  L 596.62 519.93
  L 596.62 519.93
  L 596.37 519.87
  L 592.17 519.69
  L 587.98 519.77
  L 583.71 520.10
  L 579.46 520.67
  L 575.15 521.51
  L 570.89 522.58
  L 566.59 523.91
  L 562.37 525.47
  L 558.18 527.28
  L 554.08 529.29
  L 550.01 531.56
  L 546.06 534.03
  L 542.23 536.70
  L 538.55 539.55
  L 535.02 542.56
  L 531.67 545.73
  L 528.55 549.22
  L 524.53 554.54
  L 523.36 556.14
  L 523.24 556.51
  L 523.60 556.67
  L 523.76 556.67
  L 524.36 556.36
  Z
  M 459.47 545.23
  L 466.45 548.34
  L 473.96 551.07
  L 481.99 553.42
  L 490.54 555.40
  L 494.63 556.00
  L 498.67 556.13
  L 498.83 556.10
  L 499.20 555.75
  L 499.13 555.23
  L 496.19 551.14
  L 492.97 547.28
  L 489.40 543.54
  L 485.59 540.06
  L 481.43 536.72
  L 477.08 533.66
  L 472.48 530.85
  L 467.75 528.34
  L 462.87 526.14
  L 457.83 524.22
  L 452.75 522.65
  L 447.56 521.41
  L 442.47 520.53
  L 437.33 519.99
  L 432.30 519.81
  L 427.27 519.99
  L 426.83 520.25
  L 426.77 520.76
  L 426.84 520.91
  L 429.42 524.02
  L 432.40 526.89
  L 439.20 532.44
  L 445.98 537.35
  L 452.73 541.61
  L 459.47 545.23
  Z"
/>
<path fill="#000000" d="
  M 619.42 317.94
  L 619.26 319.55
  L 618.79 321.10
  L 618.03 322.53
  L 617.00 323.78
  L 615.75 324.81
  L 614.32 325.57
  L 612.77 326.04
  L 611.16 326.20
  L 609.55 326.04
  L 608.00 325.57
  L 606.57 324.81
  L 605.32 323.78
  L 604.29 322.53
  L 603.53 321.10
  L 603.06 319.55
  L 602.90 317.94
  L 603.06 316.33
  L 603.53 314.78
  L 604.29 313.35
  L 605.32 312.10
  L 606.57 311.07
  L 608.00 310.31
  L 609.55 309.84
  L 611.16 309.68
  L 612.77 309.84
  L 614.32 310.31
  L 615.75 311.07
  L 617.00 312.10
  L 618.03 313.35
  L 618.79 314.78
  L 619.26 316.33
  L 619.42 317.94
  Z
  M 617.22 318.08
  L 617.10 316.90
  L 616.76 315.77
  L 616.20 314.72
  L 615.45 313.81
  L 614.54 313.06
  L 613.49 312.50
  L 612.36 312.16
  L 611.18 312.04
  L 610.00 312.16
  L 608.87 312.50
  L 607.82 313.06
  L 606.91 313.81
  L 606.16 314.72
  L 605.60 315.77
  L 605.26 316.90
  L 605.14 318.08
  L 605.26 319.26
  L 605.60 320.39
  L 606.16 321.44
  L 606.91 322.35
  L 607.82 323.10
  L 608.87 323.66
  L 610.00 324.00
  L 611.18 324.12
  L 612.36 324.00
  L 613.49 323.66
  L 614.54 323.10
  L 615.45 322.35
  L 616.20 321.44
  L 616.76 320.39
  L 617.10 319.26
  L 617.22 318.08
  Z"
/>
<path fill="#000000" d="
  M 613.35 313.97
  L 613.95 314.08
  L 614.46 314.41
  L 614.81 314.91
  L 614.95 315.51
  L 615.02 319.15
  L 614.78 320.51
  L 614.05 321.67
  L 612.94 322.45
  L 611.62 322.75
  L 611.62 322.75
  L 611.52 322.75
  L 611.52 322.75
  L 610.19 322.51
  L 609.06 321.76
  L 608.29 320.63
  L 608.00 319.29
  L 607.93 315.65
  L 608.03 315.04
  L 608.37 314.53
  L 608.87 314.18
  L 609.47 314.05
  L 613.35 313.97
  Z
  M 611.3623 320.9899
  L 611.6200 320.7984
  L 611.8412 320.2493
  L 612.0500 318.4547
  L 611.8663 316.6573
  L 611.6528 316.1052
  L 611.3977 315.9101
  L 611.1400 316.1016
  L 610.9188 316.6507
  L 610.7100 318.4453
  L 610.8937 320.2427
  L 611.1072 320.7948
  L 611.3623 320.9899
  Z"
/>
<path fill="#000000" d="
  M 517.37 415.90
  L 518.56 416.05
  L 519.68 416.51
  L 520.64 417.23
  L 521.40 418.17
  L 521.40 418.17
  L 521.91 419.35
  L 522.09 420.64
  L 522.08 428.38
  L 521.95 429.72
  L 521.59 431.01
  L 521.00 432.20
  L 520.21 433.25
  L 519.25 434.10
  L 518.15 434.74
  L 516.96 435.13
  L 515.72 435.26
  L 508.20 435.24
  L 508.20 435.24
  L 506.97 435.11
  L 505.78 434.71
  L 504.68 434.08
  L 503.72 433.22
  L 502.94 432.17
  L 502.35 430.98
  L 501.99 429.69
  L 501.88 428.34
  L 501.89 420.60
  L 502.25 418.79
  L 503.28 417.26
  L 504.82 416.24
  L 506.63 415.88
  L 517.37 415.90
  Z"
/>
<path fill="#000000" d="
  M 517.41 442.80
  L 518.75 443.01
  L 520.00 443.63
  L 520.99 444.62
  L 521.63 445.86
  L 521.85 447.24
  L 521.85 456.21
  L 521.85 456.21
  L 521.73 457.39
  L 521.37 458.53
  L 520.78 459.58
  L 520.00 460.50
  L 519.04 461.26
  L 517.94 461.82
  L 516.75 462.16
  L 515.52 462.28
  L 508.42 462.28
  L 507.19 462.16
  L 506.00 461.82
  L 504.90 461.26
  L 503.94 460.50
  L 503.16 459.58
  L 502.57 458.53
  L 502.21 457.39
  L 502.09 456.21
  L 502.09 456.21
  L 502.09 456.21
  L 502.09 447.24
  L 502.30 445.89
  L 502.91 444.67
  L 503.62 443.89
  L 504.49 443.29
  L 505.48 442.93
  L 506.53 442.80
  L 517.41 442.80
  Z"
/>
<path fill="#000000" d="
  M 511.37 468.70
  L 514.41 468.84
  L 516.91 469.38
  L 518.77 470.30
  L 520.06 471.60
  L 520.81 473.41
  L 521.21 476.07
  L 521.32 478.89
  L 521.14 481.87
  L 520.67 485.00
  L 520.24 486.27
  L 519.51 487.15
  L 519.51 487.15
  L 518.78 487.55
  L 516.08 488.07
  L 511.65 488.30
  L 507.22 488.20
  L 504.51 487.76
  L 503.77 487.38
  L 503.77 487.38
  L 503.01 486.52
  L 502.55 485.26
  L 501.98 482.15
  L 501.72 479.18
  L 501.75 476.36
  L 502.07 473.68
  L 502.77 471.86
  L 504.02 470.52
  L 505.85 469.54
  L 508.33 468.93
  L 511.37 468.70
  Z"
/>
<path fill="#000000" d="
  M 242.81 656.80
  L 256.93 657.05
  L 271.85 656.86
  L 272.75 656.71
  L 273.39 656.31
  L 273.39 656.31
  L 273.78 655.65
  L 273.90 654.73
  L 273.98 640.15
  L 274.50 627.81
  L 274.70 626.80
  L 275.17 625.75
  L 276.94 623.47
  L 277.97 622.56
  L 279.05 621.88
  L 280.17 621.43
  L 281.32 621.21
  L 282.70 621.22
  L 284.08 621.55
  L 285.44 622.18
  L 286.74 623.10
  L 288.25 624.77
  L 289.03 626.22
  L 289.56 627.98
  L 289.85 630.09
  L 289.96 633.05
  L 290.03 635.42
  L 290.13 640.63
  L 289.74 693.50
  L 289.71 697.88
  L 289.55 699.85
  L 289.07 701.58
  L 288.30 703.05
  L 287.25 704.26
  L 285.80 705.24
  L 284.06 705.86
  L 282.06 706.09
  L 279.83 705.91
  L 277.80 705.29
  L 276.40 704.28
  L 275.64 703.15
  L 275.17 701.79
  L 274.93 700.07
  L 274.90 697.85
  L 275.01 685.46
  L 274.72 673.10
  L 274.39 672.36
  L 273.63 672.05
  L 245.62 672.08
  L 243.02 672.40
  L 242.52 672.68
  L 242.31 673.22
  L 242.16 680.87
  L 241.94 690.77
  L 241.58 698.03
  L 241.04 701.36
  L 240.56 702.65
  L 239.95 703.68
  L 238.89 704.77
  L 237.58 705.56
  L 236.02 706.10
  L 234.35 706.31
  L 232.62 706.20
  L 230.96 705.75
  L 229.54 705.02
  L 228.36 704.00
  L 227.96 703.52
  L 227.18 702.27
  L 226.61 700.86
  L 226.27 699.27
  L 226.14 697.52
  L 225.98 668.76
  L 226.05 636.25
  L 226.38 627.88
  L 226.56 626.57
  L 226.92 625.39
  L 227.45 624.34
  L 228.14 623.44
  L 229.19 622.52
  L 230.44 621.84
  L 231.87 621.40
  L 233.46 621.21
  L 235.13 621.32
  L 236.67 621.76
  L 236.67 621.76
  L 237.86 622.39
  L 238.96 623.25
  L 239.96 624.35
  L 240.86 625.68
  L 241.36 626.85
  L 241.72 628.41
  L 242.00 632.75
  L 242.26 656.26
  L 242.42 656.67
  L 242.81 656.80
  Z"
/>
<path fill="#000000" d="
  M 521.20 646.53
  L 521.21 646.59
  L 521.46 646.94
  L 521.90 646.99
  L 525.06 646.07
  L 528.20 645.39
  L 531.34 644.95
  L 534.30 644.78
  L 537.12 644.87
  L 539.68 645.21
  L 542.06 645.81
  L 544.31 646.70
  L 547.02 648.15
  L 549.49 649.82
  L 551.72 651.69
  L 553.69 653.77
  L 553.69 653.77
  L 553.69 653.77
  L 553.69 653.77
  L 555.50 656.17
  L 557.03 658.79
  L 558.29 661.65
  L 559.29 664.73
  L 559.68 666.79
  L 559.93 669.64
  L 560.06 677.75
  L 560.01 698.97
  L 559.92 700.38
  L 559.65 701.64
  L 559.19 702.74
  L 558.55 703.68
  L 558.55 703.68
  L 557.59 704.57
  L 556.39 705.25
  L 554.94 705.72
  L 553.25 705.99
  L 551.31 706.04
  L 549.62 705.80
  L 548.19 705.28
  L 547.02 704.47
  L 547.02 704.47
  L 547.02 704.47
  L 546.09 703.36
  L 545.43 701.95
  L 545.03 700.25
  L 544.90 698.25
  L 544.94 674.26
  L 544.87 670.39
  L 544.45 668.22
  L 543.78 666.30
  L 542.86 664.62
  L 541.69 663.18
  L 540.41 662.08
  L 538.93 661.18
  L 536.18 660.12
  L 533.40 659.68
  L 533.40 659.68
  L 533.40 659.68
  L 531.23 659.77
  L 529.05 660.22
  L 527.38 660.86
  L 525.91 661.75
  L 525.91 661.75
  L 525.91 661.75
  L 524.48 663.05
  L 523.28 664.66
  L 522.32 666.60
  L 521.60 668.85
  L 521.26 671.28
  L 521.12 675.01
  L 520.98 698.25
  L 520.92 700.39
  L 520.67 702.01
  L 520.18 703.38
  L 519.48 704.38
  L 518.53 705.14
  L 517.26 705.70
  L 515.75 706.03
  L 514.08 706.13
  L 512.23 706.00
  L 510.22 705.64
  L 510.15 705.62
  L 508.72 704.85
  L 507.51 703.32
  L 506.56 700.96
  L 506.12 698.37
  L 505.88 688.27
  L 506.08 631.29
  L 506.28 627.55
  L 506.88 625.13
  L 507.56 623.98
  L 508.42 623.03
  L 510.27 621.92
  L 512.65 621.40
  L 515.19 621.50
  L 517.36 622.27
  L 518.98 623.53
  L 520.30 625.33
  L 520.64 626.23
  L 520.88 627.53
  L 521.03 631.32
  L 521.00 641.19
  L 521.20 646.53
  Z"
/>
<path fill="#000000" d="
  M 609.98 683.29
  L 610.08 681.39
  L 609.74 679.71
  L 609.23 678.58
  L 608.51 677.56
  L 607.54 676.59
  L 606.42 675.74
  L 603.41 674.23
  L 599.67 673.11
  L 588.46 670.61
  L 584.58 669.46
  L 579.97 667.53
  L 577.12 665.94
  L 574.59 663.99
  L 572.93 662.33
  L 571.46 660.47
  L 570.16 658.42
  L 569.03 656.17
  L 567.98 653.18
  L 567.36 649.90
  L 567.17 646.32
  L 567.40 642.46
  L 567.86 639.74
  L 568.62 637.14
  L 569.70 634.58
  L 571.06 632.18
  L 572.69 629.97
  L 574.57 627.96
  L 576.67 626.19
  L 578.99 624.68
  L 581.98 623.24
  L 583.77 622.70
  L 586.03 622.31
  L 591.99 621.95
  L 604.15 621.76
  L 611.75 621.47
  L 613.78 621.47
  L 615.60 621.75
  L 617.23 622.31
  L 618.65 623.14
  L 618.65 623.14
  L 620.27 624.73
  L 621.29 626.42
  L 621.82 628.19
  L 621.82 628.19
  L 621.81 630.24
  L 621.18 632.38
  L 620.53 633.58
  L 619.70 634.61
  L 619.70 634.61
  L 618.36 635.65
  L 616.71 636.40
  L 614.76 636.85
  L 612.51 636.99
  L 592.99 636.92
  L 590.60 637.03
  L 588.51 637.43
  L 586.81 638.10
  L 585.38 639.09
  L 584.44 640.13
  L 583.67 641.40
  L 583.08 642.93
  L 582.66 644.73
  L 582.54 645.98
  L 582.63 647.19
  L 582.63 647.19
  L 582.96 648.50
  L 583.53 649.78
  L 584.35 651.01
  L 585.42 652.21
  L 586.72 653.19
  L 588.53 654.06
  L 590.87 654.84
  L 593.73 655.52
  L 595.87 655.95
  L 603.19 657.54
  L 608.27 659.20
  L 613.04 661.48
  L 615.91 663.30
  L 618.38 665.34
  L 620.45 667.61
  L 622.13 670.10
  L 622.13 670.10
  L 623.67 673.55
  L 624.58 677.35
  L 624.87 681.51
  L 624.53 686.02
  L 623.98 688.75
  L 623.11 691.30
  L 621.53 694.41
  L 619.51 697.19
  L 617.00 699.72
  L 614.13 701.86
  L 610.83 703.68
  L 607.29 705.04
  L 603.57 705.94
  L 599.75 706.34
  L 592.36 706.35
  L 580.33 705.99
  L 574.68 705.73
  L 573.20 705.17
  L 573.20 705.17
  L 572.26 704.54
  L 571.43 703.72
  L 570.07 701.52
  L 569.49 699.73
  L 569.38 697.96
  L 569.38 697.96
  L 569.60 696.63
  L 570.10 695.32
  L 570.87 694.03
  L 571.91 692.76
  L 573.16 691.79
  L 574.38 691.32
  L 575.77 691.15
  L 598.27 690.80
  L 601.76 690.44
  L 604.70 689.60
  L 606.99 688.33
  L 608.65 686.62
  L 609.47 685.11
  L 609.98 683.29
  Z"
/>
<path fill="#000000" d="
  M 436.65 695.26
  L 436.46 689.56
  L 436.44 675.20
  L 437.00 649.09
  L 437.05 639.21
  L 437.13 628.73
  L 437.48 626.14
  L 437.86 625.15
  L 438.42 624.26
  L 439.12 623.55
  L 440.04 622.94
  L 442.20 622.07
  L 444.32 621.77
  L 446.40 622.03
  L 448.27 622.83
  L 449.79 624.09
  L 450.96 625.78
  L 451.67 627.75
  L 451.93 630.04
  L 451.97 694.00
  L 451.88 697.44
  L 451.53 700.03
  L 450.89 702.07
  L 449.93 703.64
  L 448.64 704.89
  L 447.19 705.75
  L 447.19 705.75
  L 447.19 705.75
  L 445.57 706.21
  L 443.78 706.28
  L 441.83 705.95
  L 439.71 705.24
  L 439.55 705.17
  L 438.79 704.66
  L 438.18 703.96
  L 437.25 701.90
  L 436.74 699.00
  L 436.65 695.26
  Z"
/>
<path fill="#000000" d="
  M 478.74 644.82
  L 486.29 644.95
  L 488.08 644.95
  L 489.78 645.21
  L 491.44 645.76
  L 492.92 646.55
  L 494.20 647.56
  L 495.23 648.76
  L 495.99 650.12
  L 496.44 651.61
  L 496.55 653.21
  L 496.29 654.88
  L 495.66 656.51
  L 494.64 658.15
  L 493.60 659.14
  L 492.64 659.58
  L 491.52 659.79
  L 479.35 660.20
  L 478.66 660.49
  L 478.35 661.17
  L 477.96 673.17
  L 478.30 684.89
  L 478.65 686.36
  L 479.55 688.55
  L 480.04 689.37
  L 480.64 689.97
  L 481.74 690.53
  L 483.26 690.75
  L 490.14 691.04
  L 493.25 691.44
  L 494.33 691.81
  L 495.09 692.30
  L 496.77 694.09
  L 497.71 695.84
  L 497.99 697.21
  L 497.95 698.82
  L 497.67 700.37
  L 497.20 701.75
  L 496.56 702.95
  L 495.73 703.97
  L 494.42 705.02
  L 492.83 705.78
  L 490.94 706.25
  L 488.76 706.44
  L 484.59 706.39
  L 480.85 706.06
  L 477.74 705.45
  L 475.18 704.56
  L 472.01 702.79
  L 469.23 700.48
  L 467.79 698.84
  L 466.55 697.05
  L 465.47 695.05
  L 464.59 692.93
  L 463.89 690.57
  L 463.39 688.12
  L 463.09 685.47
  L 462.99 682.75
  L 463.10 634.75
  L 463.58 632.06
  L 464.16 630.75
  L 465.01 629.85
  L 466.58 628.84
  L 468.24 628.20
  L 468.24 628.20
  L 468.24 628.20
  L 469.57 627.94
  L 470.95 627.90
  L 473.89 628.42
  L 475.37 629.06
  L 476.44 629.94
  L 477.18 631.06
  L 477.68 632.60
  L 477.93 634.57
  L 477.99 637.50
  L 478.16 644.25
  L 478.31 644.66
  L 478.74 644.82
  Z"
/>
<path fill="#000000" d="
  M 703.77 672.51
  L 703.96 686.76
  L 703.85 693.42
  L 703.27 700.00
  L 702.99 701.39
  L 702.53 702.61
  L 701.84 703.73
  L 700.99 704.65
  L 699.48 705.64
  L 697.72 706.20
  L 695.77 706.32
  L 693.72 705.99
  L 692.02 705.33
  L 690.66 704.34
  L 690.66 704.34
  L 689.73 703.19
  L 689.05 701.79
  L 688.62 700.13
  L 688.44 698.22
  L 688.15 677.00
  L 688.22 672.88
  L 688.50 669.15
  L 688.99 665.81
  L 689.70 662.76
  L 690.65 659.89
  L 691.81 657.35
  L 693.22 655.01
  L 694.93 652.84
  L 696.47 651.27
  L 698.23 649.82
  L 700.29 648.43
  L 702.45 647.24
  L 704.79 646.22
  L 707.20 645.43
  L 709.69 644.84
  L 712.20 644.49
  L 714.73 644.35
  L 717.25 644.44
  L 719.73 644.75
  L 722.16 645.28
  L 724.52 646.03
  L 726.79 647.00
  L 728.93 648.16
  L 730.94 649.53
  L 732.74 651.04
  L 734.39 652.75
  L 735.94 654.72
  L 737.29 656.89
  L 738.39 659.18
  L 739.29 661.65
  L 739.90 665.27
  L 740.01 670.44
  L 739.98 700.50
  L 739.85 701.76
  L 739.45 702.86
  L 738.71 703.91
  L 737.72 704.75
  L 736.43 705.42
  L 734.99 705.85
  L 733.26 706.07
  L 731.53 706.02
  L 729.92 705.70
  L 728.52 705.15
  L 727.77 704.64
  L 727.03 703.81
  L 726.51 702.82
  L 726.16 701.63
  L 725.96 700.15
  L 725.32 688.41
  L 725.01 674.74
  L 724.63 668.72
  L 724.22 666.59
  L 723.65 665.05
  L 722.74 663.59
  L 721.60 662.37
  L 721.60 662.37
  L 721.60 662.37
  L 720.06 661.29
  L 718.23 660.52
  L 716.12 660.07
  L 713.74 659.94
  L 710.87 660.30
  L 708.40 661.34
  L 708.40 661.34
  L 706.39 662.99
  L 704.76 665.29
  L 704.32 666.44
  L 704.01 668.02
  L 703.77 672.51
  Z"
/>
<path fill="#000000" d="
  M 316.31 684.43
  L 317.10 685.69
  L 318.40 687.13
  L 320.17 688.69
  L 322.01 690.04
  L 322.98 690.43
  L 324.51 690.72
  L 329.25 691.01
  L 343.34 691.08
  L 345.47 691.14
  L 347.26 691.40
  L 348.73 691.83
  L 349.86 692.46
  L 351.07 693.58
  L 351.92 694.88
  L 351.92 694.88
  L 351.92 694.88
  L 352.34 696.04
  L 352.53 697.30
  L 352.50 698.68
  L 352.23 700.17
  L 351.78 701.58
  L 351.19 702.79
  L 350.45 703.82
  L 349.57 704.65
  L 349.57 704.65
  L 349.57 704.65
  L 348.62 705.25
  L 347.55 705.69
  L 345.03 706.09
  L 334.26 706.24
  L 325.65 706.06
  L 320.57 705.47
  L 318.38 704.94
  L 316.43 704.24
  L 313.54 702.83
  L 310.92 701.20
  L 308.56 699.32
  L 306.46 697.21
  L 306.46 697.21
  L 306.46 697.21
  L 304.03 693.95
  L 302.09 690.26
  L 300.65 686.12
  L 299.71 681.55
  L 299.50 679.21
  L 299.46 676.37
  L 299.92 669.15
  L 300.35 666.56
  L 301.12 663.95
  L 302.24 661.27
  L 303.66 658.66
  L 305.36 656.14
  L 307.30 653.80
  L 309.35 651.77
  L 311.56 650.01
  L 314.88 647.96
  L 318.39 646.38
  L 318.39 646.38
  L 321.71 645.37
  L 325.18 644.76
  L 328.79 644.53
  L 332.55 644.70
  L 336.88 645.37
  L 340.83 646.53
  L 344.40 648.17
  L 347.58 650.30
  L 347.58 650.30
  L 347.58 650.30
  L 349.96 652.46
  L 352.07 654.97
  L 353.90 657.82
  L 355.47 661.01
  L 356.46 664.07
  L 357.21 668.05
  L 357.66 672.36
  L 357.57 675.36
  L 356.93 677.74
  L 355.80 679.73
  L 355.80 679.73
  L 355.80 679.73
  L 354.08 681.39
  L 351.83 682.63
  L 350.47 682.93
  L 348.13 683.12
  L 340.51 683.17
  L 329.22 682.79
  L 318.00 682.04
  L 317.24 682.15
  L 316.61 682.59
  L 316.23 683.26
  L 316.19 684.02
  L 316.31 684.43
  Z
  M 316.40 668.87
  L 341.92 669.09
  L 341.97 669.08
  L 342.02 668.99
  L 342.02 668.92
  L 342.02 668.92
  L 341.80 667.17
  L 341.10 665.47
  L 339.96 663.91
  L 338.42 662.53
  L 336.53 661.40
  L 334.38 660.55
  L 332.04 660.02
  L 329.60 659.82
  L 328.88 659.82
  L 326.44 659.97
  L 324.09 660.46
  L 321.92 661.27
  L 320.02 662.37
  L 318.45 663.72
  L 317.28 665.27
  L 316.56 666.95
  L 316.30 668.70
  L 316.30 668.70
  L 316.30 668.70
  L 316.30 668.77
  L 316.38 668.87
  L 316.40 668.87
  Z"
/>
<path fill="#000000" d="
  M 410.15 649.69
  L 410.35 649.27
  L 411.42 647.32
  L 412.48 646.25
  L 414.76 645.20
  L 416.99 644.78
  L 419.19 644.97
  L 421.15 645.76
  L 422.69 647.00
  L 423.89 648.70
  L 424.63 650.70
  L 424.92 653.04
  L 425.06 675.83
  L 424.72 699.76
  L 424.36 702.21
  L 423.92 703.23
  L 423.33 704.07
  L 422.26 704.96
  L 420.93 705.56
  L 419.22 705.97
  L 417.05 706.20
  L 415.34 706.13
  L 413.78 705.71
  L 411.85 704.50
  L 410.20 702.60
  L 409.49 702.09
  L 408.62 702.19
  L 407.27 702.90
  L 403.31 704.86
  L 400.23 705.84
  L 399.25 706.01
  L 395.02 706.39
  L 390.98 706.35
  L 387.11 705.90
  L 383.42 705.02
  L 380.07 703.75
  L 377.00 702.05
  L 377.00 702.05
  L 377.00 702.05
  L 374.46 700.15
  L 372.14 697.90
  L 370.05 695.31
  L 368.19 692.36
  L 367.25 690.54
  L 367.25 690.54
  L 367.25 690.54
  L 365.61 686.24
  L 364.60 681.65
  L 364.23 676.75
  L 364.49 671.55
  L 365.26 667.24
  L 366.60 663.11
  L 368.46 659.23
  L 370.82 655.67
  L 373.60 652.55
  L 376.79 649.89
  L 380.24 647.80
  L 384.03 646.25
  L 386.39 645.63
  L 389.68 645.08
  L 392.93 644.84
  L 396.11 644.91
  L 399.25 645.29
  L 399.25 645.29
  L 403.51 646.34
  L 406.36 647.65
  L 409.49 649.84
  L 409.86 649.97
  L 410.15 649.69
  Z
  M 395.4980 691.7783
  L 398.3630 691.2382
  L 401.0683 690.1036
  L 403.5101 688.4183
  L 405.5945 686.2469
  L 407.2414 683.6728
  L 408.3875 680.7951
  L 408.9888 677.7242
  L 409.0221 674.5782
  L 408.4862 671.4781
  L 407.4017 668.5429
  L 405.8103 665.8854
  L 403.7730 663.6077
  L 401.3683 661.7975
  L 398.6884 660.5242
  L 395.8365 659.8368
  L 392.9220 659.7617
  L 390.0570 660.3018
  L 387.3517 661.4364
  L 384.9099 663.1217
  L 382.8255 665.2931
  L 381.1786 667.8672
  L 380.0325 670.7449
  L 379.4312 673.8158
  L 379.3979 676.9618
  L 379.9338 680.0619
  L 381.0183 682.9971
  L 382.6097 685.6546
  L 384.6470 687.9323
  L 387.0517 689.7425
  L 389.7316 691.0158
  L 392.5835 691.7032
  L 395.4980 691.7783
  Z"
/>
<path fill="#000000" d="
  M 654.03 684.16
  L 654.46 684.81
  L 654.87 685.01
  L 654.87 685.01
  L 655.25 684.77
  L 655.62 684.08
  L 662.54 666.62
  L 669.16 650.69
  L 670.10 648.83
  L 671.14 647.39
  L 672.33 646.29
  L 673.73 645.49
  L 674.92 645.14
  L 676.24 645.01
  L 677.74 645.15
  L 677.74 645.15
  L 680.02 645.97
  L 682.17 647.54
  L 683.15 648.57
  L 683.80 649.54
  L 684.12 650.43
  L 684.11 651.25
  L 683.09 655.32
  L 653.71 726.41
  L 652.67 728.66
  L 651.45 730.79
  L 651.37 730.91
  L 650.52 732.08
  L 649.63 732.97
  L 648.69 733.60
  L 647.71 733.96
  L 645.33 734.23
  L 643.07 733.93
  L 641.14 733.12
  L 639.55 731.80
  L 638.89 730.89
  L 638.37 729.82
  L 637.87 727.49
  L 638.18 725.20
  L 639.33 721.70
  L 644.95 706.85
  L 645.25 705.22
  L 644.97 703.59
  L 640.02 690.72
  L 626.72 658.49
  L 625.91 656.07
  L 625.32 653.54
  L 625.13 651.66
  L 625.30 650.35
  L 625.32 650.28
  L 626.04 648.81
  L 627.02 647.53
  L 628.28 646.42
  L 629.71 645.59
  L 631.25 645.06
  L 632.85 644.86
  L 634.35 645.00
  L 635.79 645.47
  L 637.46 646.59
  L 638.29 647.54
  L 639.19 648.95
  L 641.24 653.14
  L 646.60 665.90
  L 652.78 681.28
  L 654.03 684.16
  Z"
/>
<path fill="#000000" d="
  M 769.34 662.44
  L 767.66 663.98
  L 766.31 665.81
  L 765.26 667.93
  L 764.48 670.43
  L 764.04 673.20
  L 763.98 676.00
  L 764.28 678.82
  L 764.92 681.43
  L 765.79 683.63
  L 766.88 685.55
  L 768.18 687.18
  L 769.69 688.53
  L 769.69 688.53
  L 769.69 688.53
  L 772.29 689.99
  L 775.36 690.83
  L 783.14 691.14
  L 790.96 691.07
  L 791.96 691.11
  L 794.24 691.75
  L 796.43 693.17
  L 797.92 694.84
  L 798.75 696.71
  L 798.95 697.86
  L 798.95 699.02
  L 798.36 701.29
  L 797.06 703.35
  L 795.09 705.02
  L 793.80 705.62
  L 792.11 706.03
  L 787.44 706.30
  L 786.64 706.31
  L 779.94 706.34
  L 775.21 706.19
  L 771.87 705.87
  L 768.90 705.36
  L 766.32 704.65
  L 764.12 703.76
  L 761.52 702.28
  L 759.18 700.57
  L 756.43 697.90
  L 754.02 694.72
  L 752.10 691.24
  L 750.59 687.30
  L 749.54 683.00
  L 749.01 678.55
  L 748.97 673.89
  L 749.42 669.23
  L 750.12 665.87
  L 751.16 662.65
  L 752.54 659.61
  L 754.24 656.78
  L 756.24 654.19
  L 758.53 651.88
  L 761.01 649.92
  L 763.74 648.28
  L 767.56 646.68
  L 771.73 645.69
  L 776.92 645.06
  L 782.12 644.73
  L 787.20 644.71
  L 792.08 645.00
  L 794.00 645.42
  L 795.55 646.30
  L 796.07 646.78
  L 797.66 648.93
  L 798.49 651.22
  L 798.59 653.41
  L 798.06 655.73
  L 797.19 657.47
  L 795.97 658.75
  L 795.97 658.75
  L 795.97 658.75
  L 794.11 659.66
  L 791.78 659.95
  L 782.01 659.84
  L 777.87 659.88
  L 774.80 660.20
  L 772.24 660.88
  L 770.05 661.96
  L 769.34 662.44
  Z"
/>
</svg>
